<svg width="535" height="462" viewBox="0 0 535 462" fill="none" xmlns="http://www.w3.org/2000/svg">
<path d="M395.067 451.682C396.178 451.953 397.326 452.071 398.473 452.033C398.473 452.033 397.947 450.56 397.91 450.467C397.371 449.438 395.693 447.72 394.34 447.896C394.121 447.938 393.912 448.022 393.728 448.142C393.545 448.262 393.389 448.416 393.272 448.595C393.154 448.773 393.077 448.973 393.046 449.18C393.014 449.387 393.029 449.599 393.088 449.801C393.257 450.227 393.521 450.614 393.862 450.939C394.203 451.263 394.614 451.516 395.067 451.682Z" fill="#263238"/>
<path d="M411.424 469.551C412.316 470.11 413.297 470.536 414.33 470.813C414.217 471.257 414.129 471.701 414.004 472.122C413.879 472.543 413.854 472.695 413.753 472.975C413.653 473.256 413.553 473.548 413.453 473.817C413.252 474.354 413.04 474.904 412.827 475.406L412.526 476.119H413.328L413.515 475.652C413.728 475.126 413.916 474.588 414.129 474.015C414.217 473.735 414.305 473.454 414.405 473.162C414.505 472.87 414.555 472.578 414.643 472.274C414.818 471.585 414.968 470.872 415.094 470.147C416.113 470.531 417.191 470.764 418.287 470.837C418.785 470.83 419.274 470.722 419.722 470.52C420.17 470.319 420.565 470.028 420.88 469.668C421.01 469.492 421.099 469.293 421.142 469.083C421.185 468.874 421.18 468.658 421.128 468.45C421.077 468.242 420.979 468.046 420.841 467.875C420.703 467.705 420.529 467.563 420.329 467.459C419.076 466.875 416.91 467.962 416.045 468.768C416.045 468.768 415.432 469.469 415.144 469.82C415.206 469.387 415.281 468.955 415.344 468.523C415.519 467.249 415.645 465.952 415.782 464.666C415.782 464.269 415.87 463.871 415.908 463.497C416.965 463.888 418.08 464.128 419.214 464.21C419.711 464.204 420.201 464.096 420.649 463.894C421.097 463.692 421.492 463.401 421.806 463.042C421.936 462.867 422.026 462.669 422.068 462.46C422.111 462.251 422.107 462.036 422.055 461.829C422.003 461.622 421.905 461.427 421.767 461.257C421.629 461.088 421.455 460.947 421.255 460.844C420.003 460.26 417.836 461.335 416.972 462.153C416.972 462.212 416.108 463.135 415.92 463.381C416.02 462.516 416.12 461.651 416.258 460.809C416.449 459.665 416.717 458.533 417.06 457.42C418.122 457.814 419.24 458.058 420.379 458.145C420.876 458.138 421.366 458.031 421.814 457.829C422.262 457.627 422.657 457.336 422.971 456.976C423.101 456.801 423.191 456.603 423.233 456.394C423.276 456.185 423.271 455.97 423.219 455.763C423.167 455.556 423.069 455.362 422.932 455.192C422.794 455.022 422.62 454.882 422.42 454.779C421.168 454.183 419.001 455.27 418.137 456.076C418.062 456.146 417.21 457.14 417.072 457.338C417.065 457.272 417.065 457.206 417.072 457.14C417.449 456.031 417.931 454.955 418.513 453.926C418.826 453.365 419.164 452.827 419.502 452.325C420.485 452.812 421.54 453.159 422.633 453.353C423.126 453.403 423.625 453.352 424.095 453.202C424.564 453.053 424.993 452.809 425.351 452.488C425.501 452.328 425.614 452.14 425.682 451.936C425.749 451.733 425.77 451.518 425.743 451.307C425.716 451.095 425.641 450.891 425.524 450.708C425.407 450.525 425.25 450.367 425.063 450.245C423.923 449.532 421.619 450.385 420.654 451.109C420.654 451.109 420.116 451.589 419.765 451.928L420.228 451.25C420.805 450.432 421.393 449.73 421.907 449.111L422.746 448.153C423.857 448.165 424.963 448.019 426.027 447.72C426.486 447.551 426.901 447.291 427.242 446.958C427.584 446.625 427.844 446.227 428.006 445.792C428.063 445.585 428.072 445.37 428.033 445.16C427.994 444.95 427.908 444.75 427.78 444.573C427.652 444.396 427.486 444.247 427.292 444.135C427.097 444.023 426.88 443.95 426.653 443.922C425.276 443.782 423.66 445.523 423.159 446.575C423.159 446.668 422.608 448.153 422.633 448.153C422.37 448.421 422.095 448.725 421.806 449.053C421.268 449.672 420.667 450.361 420.066 451.168C419.419 452.026 418.822 452.916 418.275 453.832C417.669 454.861 417.157 455.937 416.747 457.046C416.747 456.672 416.747 455.621 416.747 455.539C416.596 454.37 415.569 452.29 414.242 452.033C414.016 452 413.786 452.011 413.565 452.067C413.345 452.122 413.139 452.22 412.962 452.355C412.785 452.489 412.64 452.657 412.537 452.847C412.434 453.037 412.375 453.246 412.363 453.458C412.385 453.908 412.508 454.349 412.723 454.751C412.939 455.154 413.243 455.51 413.616 455.796C414.57 456.375 415.613 456.817 416.709 457.105C416.323 458.254 416.018 459.425 415.795 460.611C415.67 461.289 415.557 461.99 415.457 462.691C415.457 462.364 415.457 462.072 415.457 462.037C415.294 460.868 414.279 458.788 412.952 458.531C412.726 458.496 412.495 458.506 412.273 458.561C412.052 458.615 411.846 458.713 411.668 458.848C411.49 458.983 411.346 459.152 411.243 459.343C411.14 459.534 411.083 459.743 411.073 459.956C411.088 460.407 411.207 460.85 411.423 461.254C411.64 461.657 411.948 462.012 412.326 462.294C413.246 462.867 414.256 463.304 415.319 463.591L415.206 464.397C415.043 465.683 414.881 466.968 414.693 468.219C414.618 468.663 414.53 469.095 414.455 469.539C414.455 469.247 414.455 469.002 414.455 468.967C414.304 467.798 413.277 465.718 411.95 465.461C411.724 465.428 411.494 465.439 411.273 465.495C411.053 465.55 410.847 465.649 410.67 465.783C410.493 465.917 410.348 466.085 410.245 466.275C410.142 466.465 410.083 466.674 410.071 466.887C410.05 467.399 410.163 467.909 410.398 468.373C410.633 468.837 410.985 469.241 411.424 469.551Z" fill="#263238"/>
<path d="M395.894 458.203C397.033 458.198 398.164 458.032 399.25 457.712C399.588 458.863 400.006 459.991 400.503 461.09C400.803 461.733 401.116 462.364 401.454 463.007L401.054 462.469C400.24 461.592 398.148 460.365 396.883 460.868C396.676 460.956 396.491 461.084 396.341 461.244C396.19 461.403 396.077 461.59 396.008 461.792C395.94 461.995 395.918 462.209 395.943 462.42C395.969 462.631 396.042 462.835 396.157 463.018C396.445 463.395 396.819 463.708 397.252 463.934C397.685 464.16 398.167 464.295 398.662 464.327C399.766 464.333 400.864 464.179 401.918 463.871C402.056 464.105 402.181 464.351 402.306 464.596C402.932 465.765 403.559 466.933 404.135 468.102C404.348 468.511 404.523 468.92 404.711 469.271L404.36 468.803C403.559 467.938 401.467 466.711 400.19 467.214C399.984 467.303 399.8 467.432 399.651 467.592C399.501 467.752 399.389 467.939 399.322 468.141C399.255 468.344 399.234 468.557 399.26 468.768C399.287 468.978 399.36 469.182 399.476 469.364C399.764 469.741 400.138 470.054 400.571 470.28C401.004 470.506 401.486 470.64 401.981 470.673C403.055 470.685 404.125 470.535 405.149 470.229C405.324 470.65 405.512 471.07 405.663 471.491C405.813 471.912 405.876 472.04 405.951 472.333L406.214 473.197C406.352 473.735 406.502 474.366 406.627 474.845C406.752 475.324 406.79 475.57 406.865 475.932C406.665 475.535 406.264 474.763 406.214 474.682C405.562 473.712 403.709 472.192 402.356 472.508C402.136 472.566 401.931 472.667 401.756 472.804C401.58 472.941 401.438 473.111 401.337 473.303C401.237 473.495 401.181 473.704 401.173 473.917C401.165 474.131 401.206 474.343 401.292 474.541C401.494 474.923 401.781 475.261 402.133 475.533C402.484 475.805 402.893 476.004 403.333 476.119H407.742C407.727 476.032 407.706 475.946 407.679 475.862C407.842 475.792 408.756 475.453 409.57 475.032C410.053 475.462 410.596 475.828 411.186 476.119H412.438C412.438 475.675 412.589 475.126 412.589 475.067C412.569 474.061 412.276 473.076 411.737 472.204C411.75 472.091 411.75 471.978 411.737 471.865C411.71 471.653 411.635 471.449 411.517 471.266C411.399 471.082 411.24 470.925 411.052 470.803C410.863 470.682 410.65 470.599 410.424 470.56C410.199 470.522 409.968 470.528 409.745 470.58C408.418 470.907 407.579 473.08 407.516 474.226C407.516 474.296 407.516 475.032 407.591 475.5C407.529 475.231 407.466 474.962 407.391 474.682C407.253 474.144 407.103 473.595 406.928 473.01C406.84 472.73 406.752 472.449 406.652 472.157C406.552 471.865 406.439 471.585 406.339 471.292C406.076 470.626 405.775 469.948 405.45 469.282C406.527 469.084 407.563 468.724 408.518 468.219C408.929 467.963 409.275 467.626 409.532 467.232C409.789 466.839 409.952 466.398 410.009 465.94C410.016 465.727 409.976 465.514 409.889 465.317C409.803 465.12 409.672 464.941 409.507 464.795C409.341 464.648 409.144 464.535 408.928 464.465C408.712 464.394 408.483 464.367 408.255 464.386C406.89 464.514 405.75 466.548 405.45 467.67C405.45 467.74 405.35 468.569 405.325 469.025C405.124 468.628 404.936 468.219 404.723 467.857C404.11 466.688 403.471 465.519 402.795 464.421C402.607 464.07 402.406 463.719 402.206 463.369C403.32 463.156 404.393 462.785 405.387 462.27C405.8 462.016 406.148 461.68 406.406 461.286C406.663 460.892 406.824 460.45 406.877 459.991C406.885 459.778 406.845 459.566 406.758 459.368C406.672 459.171 406.541 458.993 406.376 458.846C406.21 458.699 406.013 458.587 405.797 458.516C405.581 458.446 405.352 458.419 405.124 458.437C403.759 458.577 402.619 460.611 402.319 461.733C402.319 461.814 402.193 463.007 402.181 463.299C401.743 462.527 401.317 461.756 400.929 460.961C400.404 459.912 399.956 458.83 399.588 457.724C400.693 457.5 401.753 457.117 402.732 456.591C403.145 456.337 403.493 456.001 403.75 455.607C404.008 455.213 404.169 454.77 404.222 454.312C404.23 454.098 404.19 453.886 404.103 453.689C404.017 453.491 403.886 453.313 403.72 453.166C403.555 453.019 403.358 452.907 403.142 452.836C402.926 452.766 402.697 452.739 402.469 452.757C401.104 452.898 399.964 454.931 399.664 456.053C399.664 456.135 399.526 457.42 399.513 457.654C399.513 457.584 399.513 457.525 399.451 457.455C399.108 456.34 398.874 455.198 398.749 454.043C398.674 453.4 398.637 452.792 398.624 452.196C399.735 452.089 400.823 451.833 401.855 451.437C402.293 451.222 402.676 450.922 402.979 450.557C403.282 450.192 403.496 449.771 403.609 449.321C403.638 449.11 403.621 448.895 403.556 448.691C403.492 448.486 403.383 448.297 403.235 448.134C403.088 447.971 402.906 447.839 402.701 447.745C402.495 447.652 402.271 447.6 402.043 447.592C400.666 447.592 399.238 449.485 398.862 450.584L398.612 451.752C398.612 451.483 398.612 451.203 398.612 450.946C398.612 449.976 398.612 449.088 398.749 448.305C398.749 447.861 398.837 447.451 398.875 447.078C399.817 446.516 400.662 445.822 401.379 445.021C401.666 444.644 401.86 444.214 401.949 443.759C402.038 443.305 402.019 442.838 401.893 442.391C401.816 442.191 401.694 442.008 401.536 441.854C401.378 441.7 401.187 441.579 400.976 441.499C400.764 441.418 400.537 441.38 400.309 441.387C400.081 441.394 399.856 441.445 399.651 441.538C398.399 442.122 398.111 444.425 398.311 445.547C398.311 445.652 398.787 447.148 398.812 447.136C398.812 447.498 398.699 447.896 398.649 448.305C398.574 449.088 398.486 449.988 398.461 450.958C398.425 452.006 398.45 453.055 398.536 454.101C398.64 455.284 398.849 456.457 399.163 457.607C398.95 457.292 398.311 456.439 398.261 456.357C397.447 455.492 395.355 454.265 394.09 454.756C393.883 454.845 393.698 454.975 393.547 455.135C393.396 455.295 393.283 455.483 393.215 455.687C393.146 455.89 393.124 456.105 393.15 456.317C393.176 456.529 393.248 456.734 393.364 456.918C393.658 457.293 394.037 457.603 394.474 457.826C394.912 458.048 395.396 458.177 395.894 458.203Z" fill="#263238"/>
<path d="M419.489 452.173C419.489 452.173 419.927 450.677 419.94 450.584C420.115 449.415 419.727 447.159 418.487 446.598C418.279 446.513 418.053 446.468 417.825 446.468C417.597 446.468 417.372 446.512 417.163 446.598C416.955 446.684 416.768 446.809 416.614 446.966C416.46 447.123 416.343 447.309 416.27 447.51C416.16 447.96 416.155 448.427 416.256 448.879C416.358 449.331 416.564 449.757 416.859 450.128C417.625 450.925 418.511 451.614 419.489 452.173Z" fill="#263238"/>
<path d="M337.329 333.471C337.329 333.471 384.667 337.69 408.654 364.114C408.654 364.114 434.004 333.506 479.525 334.137C490.652 322.054 497.739 307.374 499.959 291.805C502.178 276.236 499.44 260.42 492.063 246.199C484.686 231.977 472.973 219.934 458.289 211.474C443.605 203.013 426.554 198.483 409.12 198.41C391.687 198.337 374.59 202.724 359.819 211.061C345.048 219.398 333.211 231.342 325.687 245.501C318.163 259.661 315.262 275.453 317.321 291.04C319.379 306.626 326.314 321.365 337.316 333.541L337.329 333.471Z" fill="#9C6DFF"/>
<path d="M337.329 333.471C337.329 333.471 384.667 337.69 408.654 364.114C408.654 364.114 434.004 333.506 479.525 334.137C490.652 322.054 497.739 307.374 499.959 291.805C502.178 276.236 499.44 260.42 492.063 246.199C484.686 231.977 472.973 219.934 458.289 211.474C443.605 203.013 426.554 198.483 409.12 198.41C391.687 198.337 374.59 202.724 359.819 211.061C345.048 219.398 333.211 231.342 325.687 245.501C318.163 259.661 315.262 275.453 317.321 291.04C319.379 306.626 326.314 321.365 337.316 333.541L337.329 333.471Z" fill="white"/>
<path d="M363.951 303.494C387.588 310.238 402.281 330.023 406.11 335.738L405.76 476.552H412.561L411.549 353.035C416.741 346.022 431.447 328.492 454.227 322.205C454.227 322.205 427.177 327.978 411.393 347.39L410.497 317.822C414.391 312.201 429.63 292.287 454.24 285.509C454.24 285.509 425.944 291.551 410.329 312.037L409.433 282.236L409.498 282.634C409.498 282.634 425.476 256.736 454.24 248.824C454.24 248.824 424.633 255.158 409.277 276.802L407.11 236.693L406.435 294.18C391.378 273.588 363.964 267.523 363.964 267.523C388.185 274.43 403.008 295.033 406.383 300.164L406.162 329.801C391.053 309.548 363.951 303.494 363.951 303.494Z" fill="#263238"/>
<path d="M363.951 303.494C387.588 310.238 402.281 330.023 406.11 335.738L405.76 476.552H412.561L411.549 353.035C416.741 346.022 431.447 328.492 454.227 322.205C454.227 322.205 427.177 327.978 411.393 347.39L410.497 317.822C414.391 312.201 429.63 292.287 454.24 285.509C454.24 285.509 425.944 291.551 410.329 312.037L409.433 282.236L409.498 282.634C409.498 282.634 425.476 256.736 454.24 248.824C454.24 248.824 424.633 255.158 409.277 276.802L407.11 236.693L406.435 294.18C391.378 273.588 363.964 267.523 363.964 267.523C388.185 274.43 403.008 295.033 406.383 300.164L406.162 329.801C391.053 309.548 363.951 303.494 363.951 303.494Z" fill="#263238"/>
</svg>
